<?xml version="1.0" encoding="utf-8"?>
<!-- Generator: Adobe Illustrator 23.0.2, SVG Export Plug-In . SVG Version: 6.00 Build 0)  -->
<svg version="1.1" id="Layer_1" xmlns="http://www.w3.org/2000/svg" xmlns:xlink="http://www.w3.org/1999/xlink" x="0px" y="0px"
	 viewBox="0 0 1000 1000" height="300px" width="200px" style="enable-background:new 0 0 1000 1000;" xml:space="preserve">
<g>
	<g>
		<path d="M289.91,490.08l0.36-13.9c0.08-3.08,0.32-5.97,0.72-8.68c-0.69,1.02-1.57,2.55-2.62,4.57
			c-3.14,6.09-6.53,11.8-10.16,17.13c-0.26-1.91-0.47-4.15-0.64-6.71c-0.16-2.56-0.24-4.81-0.24-6.73c0-2.72,0.21-4.89,0.64-6.51
			c0.42-1.62,1.23-3.39,2.41-5.32c-2.25,0.3-4.03,1.16-5.35,2.57c-1.32,1.41-1.98,2.86-1.98,4.34c0,0.55,0.13,1.1,0.38,1.66
			c0.31,0.68,0.46,1.13,0.46,1.36c0,0.37-0.1,0.68-0.3,0.93c-0.2,0.24-0.44,0.37-0.73,0.37c-0.39,0-0.7-0.21-0.94-0.63
			c-0.33-0.55-0.49-1.25-0.49-2.11c0-1.31,0.31-2.65,0.94-4.01c0.63-1.37,1.46-2.49,2.5-3.38c1.04-0.88,2.22-1.53,3.55-1.93
			c0.73-0.22,1.95-0.44,3.67-0.67c0.59-0.09,1.16-0.18,1.74-0.28c-2.59,4.37-3.89,8.79-3.89,13.25c0,1.39,0.09,4.16,0.28,8.31
			c0.7-1.02,1.34-2,1.91-2.95c0.39-0.66,1.42-2.49,3.07-5.49c2.67-4.88,4.66-8.32,5.98-10.31c0.94-1.38,2-2.67,3.18-3.86
			c-1.15,5.42-1.72,13.21-1.72,23.36l4.5-6.7c1.21-1.81,2.43-3.92,3.66-6.33c1.24-2.41,2.05-4.33,2.45-5.77
			c0.25-0.94,0.38-1.82,0.38-2.65c0-0.82-0.16-1.68-0.47-2.59c-0.19-0.58-0.29-0.99-0.29-1.25c0-0.39,0.12-0.72,0.35-0.98
			c0.23-0.27,0.53-0.4,0.89-0.4c0.45,0,0.81,0.24,1.07,0.73c0.38,0.66,0.57,1.54,0.57,2.63c0,1.45-0.42,3.37-1.25,5.74
			s-2.67,5.84-5.53,10.4C295.32,483.11,292.29,487.38,289.91,490.08z"/>
		<path d="M303.26,474.44l-0.57-1.01l1.33-1.08c1.29-1.06,2.2-1.75,2.72-2.05c0.3-0.17,0.57-0.26,0.82-0.26
			c0.25,0,0.49,0.17,0.72,0.52c1.05,1.6,1.93,3.75,2.65,6.46c0.72,2.71,1.07,5.34,1.07,7.88c0,0.33-0.01,0.83-0.04,1.51
			c2.02-4.48,3.03-8.03,3.03-10.67c0-0.55-0.1-1.27-0.3-2.18c-0.22-1.01-0.32-1.73-0.32-2.16c0-0.42,0.11-0.76,0.33-1.04
			c0.22-0.27,0.5-0.41,0.83-0.41c0.42,0,0.76,0.19,1.01,0.58c0.26,0.39,0.39,0.94,0.39,1.66c0,1.86-0.35,4.17-1.06,6.94
			c-0.7,2.77-1.81,5.75-3.32,8.93c-1.51,3.19-2.89,5.55-4.14,7.1s-2.45,2.65-3.62,3.32s-2.27,1-3.31,1c-0.79,0-1.38-0.18-1.78-0.53
			c-0.4-0.35-0.6-0.77-0.6-1.26c0-0.43,0.16-0.8,0.47-1.11c0.31-0.31,0.73-0.46,1.25-0.46c0.41,0,0.96,0.09,1.67,0.28
			c0.75,0.2,1.27,0.3,1.54,0.3c0.73,0,1.5-0.37,2.31-1.1c1.11-1.01,1.99-2.21,2.64-3.6c0.65-1.39,0.98-2.8,0.98-4.23
			c0-2-0.24-4.4-0.73-7.2c-0.48-2.8-1.17-4.94-2.05-6.42c-0.44-0.76-0.91-1.14-1.42-1.14C305.18,473.01,304.34,473.49,303.26,474.44
			z"/>
		<path d="M318.52,475.11l-0.61-0.76c1.53-1.76,2.75-2.93,3.66-3.51c0.91-0.58,1.69-0.87,2.33-0.87c0.25,0,0.45,0.06,0.59,0.19
			c0.14,0.13,0.22,0.28,0.22,0.45c0,0.13-0.03,0.36-0.09,0.69l-0.81,4.34c1.22-1.63,2.74-3.15,4.58-4.56
			c0.98-0.73,1.78-1.1,2.41-1.1c0.47,0,0.83,0.18,1.09,0.54c0.26,0.36,0.39,0.88,0.39,1.55c0,0.45-0.05,0.95-0.16,1.51
			c-0.19,0.94-0.69,2.97-1.5,6.11c-0.76,2.93-1.14,4.88-1.14,5.85c0,0.29,0.04,0.52,0.11,0.66c0.07,0.15,0.17,0.22,0.3,0.22
			c0.35,0,0.89-0.4,1.63-1.21c0.53-0.58,1.05-1.11,1.58-1.6l0.45,0.78c-1.1,1.46-2.24,2.63-3.42,3.52
			c-0.75,0.57-1.37,0.86-1.86,0.86c-0.45,0-0.81-0.2-1.06-0.59c-0.25-0.4-0.38-1.04-0.38-1.93c0-1.28,0.66-4.47,1.99-9.56
			c0.41-1.81,0.61-2.87,0.61-3.17c0-0.45-0.22-0.67-0.66-0.67c-0.48,0-1.09,0.3-1.85,0.91c-1.12,0.89-2.06,1.94-2.81,3.15
			c-0.48,0.78-0.88,2.02-1.2,3.72l-1.45,7.54h-2.67c0.5-2.16,0.94-4.23,1.31-6.2l1.59-8.21c0.06-0.33,0.09-0.57,0.09-0.71
			c0-0.39-0.12-0.58-0.36-0.58c-0.19,0-0.47,0.15-0.82,0.46C319.86,473.52,319.17,474.25,318.52,475.11z"/>
		<path d="M348.65,483.72l0.5,0.82c-1.6,1.63-2.79,2.7-3.57,3.24c-1.07,0.73-1.92,1.1-2.54,1.1c-0.29,0-0.52-0.1-0.7-0.29
			c-0.18-0.19-0.27-0.41-0.27-0.66s0.07-0.65,0.2-1.21l0.63-2.64c-1.43,1.86-2.63,3.12-3.58,3.78c-0.96,0.66-1.82,0.99-2.58,0.99
			c-0.63,0-1.16-0.34-1.59-1c-0.43-0.67-0.64-1.65-0.64-2.95c0-2.05,0.58-4.4,1.75-7.05c1.16-2.66,2.46-4.62,3.89-5.9
			c1.43-1.28,2.73-1.91,3.91-1.91c0.26,0,0.66,0.05,1.18,0.15c0.56-2.8,1.1-4.84,1.61-6.13c0.51-1.29,1.18-2.39,1.99-3.33
			c0.81-0.93,1.74-1.65,2.79-2.17c1.04-0.51,2.02-0.76,2.93-0.76c0.48,0,0.86,0.15,1.15,0.45c0.29,0.3,0.43,0.68,0.43,1.14
			c0,0.45-0.13,0.81-0.4,1.09s-0.62,0.42-1.08,0.42c-0.3,0-0.86-0.07-1.67-0.22c-0.81-0.14-1.37-0.22-1.67-0.22
			c-0.42,0-0.79,0.15-1.1,0.46c-0.32,0.31-0.62,0.97-0.91,1.99c-0.19,0.65-0.62,2.71-1.3,6.19l-2.53,13.04
			c-0.3,1.54-0.45,2.56-0.45,3.07c0,0.55,0.17,0.82,0.52,0.82c0.21,0,0.47-0.09,0.75-0.28C346.7,485.49,347.48,484.81,348.65,483.72
			z M344.86,472.56c-0.96-0.26-1.63-0.39-2.02-0.39c-0.8,0-1.58,0.38-2.35,1.13c-0.76,0.76-1.5,2.22-2.21,4.4
			c-0.71,2.18-1.07,4.07-1.07,5.68c0,0.73,0.16,1.34,0.49,1.8s0.7,0.7,1.12,0.7c0.5,0,1.07-0.27,1.72-0.8
			c0.92-0.79,1.65-1.76,2.19-2.9c0.32-0.72,0.76-2.49,1.31-5.3L344.86,472.56z"/>
		<path d="M365.39,483.61l0.47,0.8c-1.1,1.47-2.23,2.63-3.39,3.5c-0.79,0.59-1.44,0.88-1.95,0.88c-0.42,0-0.76-0.2-1.01-0.6
			s-0.39-1.03-0.39-1.88c0-0.58,0.1-1.41,0.3-2.51c0.2-1.1,0.76-3.46,1.68-7.09c0.41-1.78,0.61-2.83,0.61-3.13
			c0-0.46-0.2-0.69-0.61-0.69c-0.5,0-1.13,0.3-1.89,0.9c-1.05,0.83-1.99,1.89-2.8,3.19c-0.52,0.83-0.93,2.05-1.24,3.67l-1.41,7.54
			h-2.67c0.57-2.51,1.01-4.57,1.33-6.16l2.63-13.84c0.48-2.56,1.11-4.52,1.89-5.9c0.78-1.38,1.8-2.48,3.06-3.3
			c1.26-0.82,2.51-1.24,3.74-1.24c0.51,0,0.92,0.15,1.22,0.46c0.3,0.31,0.45,0.69,0.45,1.16c0,0.39-0.15,0.74-0.44,1.04
			c-0.29,0.3-0.69,0.45-1.19,0.45c-0.29,0-0.66-0.04-1.11-0.11c-1.03-0.18-1.74-0.27-2.13-0.27c-0.55,0-1,0.27-1.35,0.8
			c-0.35,0.54-0.71,1.79-1.08,3.77l-2,10.65c1.42-1.8,2.97-3.31,4.65-4.55c0.98-0.73,1.77-1.1,2.37-1.1c0.47,0,0.83,0.17,1.09,0.5
			c0.26,0.33,0.39,0.79,0.39,1.38c0,0.49-0.05,0.98-0.14,1.47c-0.16,0.85-0.52,2.39-1.1,4.62c-0.78,3.08-1.24,4.99-1.37,5.74
			c-0.14,0.75-0.21,1.42-0.21,2.01c0,0.23,0.03,0.4,0.1,0.52c0.07,0.12,0.16,0.17,0.3,0.17c0.29,0,0.82-0.41,1.61-1.23
			C364.22,484.76,364.75,484.23,365.39,483.61z"/>
		<path d="M379.36,469.67l1.18-0.3l-1.34,5.46c-0.54,2.17-1.04,4.68-1.52,7.51c-0.26,1.54-0.39,2.53-0.39,2.98s0.15,0.67,0.45,0.67
			c0.19,0,0.5-0.15,0.91-0.45c0.74-0.53,1.45-1.19,2.13-1.99l0.57,0.84c-1.36,1.5-2.23,2.4-2.62,2.72c-0.76,0.63-1.49,1.1-2.19,1.4
			c-0.45,0.2-0.9,0.3-1.33,0.3c-0.31,0-0.54-0.09-0.7-0.26c-0.16-0.17-0.23-0.42-0.23-0.76c0-0.22,0.05-0.51,0.14-0.88l0.72-2.93
			c-1.03,1.48-2.25,2.76-3.67,3.82c-0.87,0.66-1.67,0.99-2.4,0.99c-0.69,0-1.22-0.29-1.59-0.88c-0.5-0.79-0.75-1.83-0.75-3.11
			c0-1.52,0.34-3.22,1.01-5.09c0.67-1.87,1.58-3.57,2.71-5.09c1.13-1.52,2.33-2.65,3.58-3.37c0.97-0.55,2.21-0.82,3.73-0.82
			c0.38,0,0.77,0.03,1.16,0.09L379.36,469.67z M377.14,472.97c-0.64-0.16-1.19-0.24-1.63-0.24c-1.07,0-2.01,0.36-2.81,1.07
			c-0.8,0.71-1.54,1.99-2.23,3.84c-0.69,1.85-1.03,3.69-1.03,5.54c0,0.98,0.14,1.68,0.41,2.11c0.27,0.43,0.63,0.65,1.07,0.65
			c0.82,0,1.71-0.54,2.65-1.61c0.94-1.07,1.64-2.61,2.08-4.63L377.14,472.97z"/>
		<path d="M383.03,475l-0.54-0.86c1.18-1.42,2.31-2.47,3.37-3.15c1.07-0.68,1.9-1.01,2.52-1.01c0.25,0,0.44,0.06,0.57,0.19
			c0.13,0.13,0.19,0.31,0.19,0.54c0,0.29-0.1,0.84-0.29,1.66c-0.27,1.21-0.47,2.17-0.57,2.87c2.86-3.51,5.04-5.27,6.56-5.27
			c0.39,0,0.69,0.13,0.89,0.39c0.2,0.26,0.3,0.67,0.3,1.23c0,0.6-0.18,1.63-0.54,3.09c1.36-1.71,2.55-2.92,3.55-3.64
			c1-0.71,1.79-1.07,2.35-1.07c0.5,0,0.89,0.17,1.17,0.52c0.27,0.35,0.41,0.88,0.41,1.6c0,0.43-0.06,0.94-0.18,1.53
			c-0.12,0.59-0.56,2.39-1.31,5.4c-0.94,3.73-1.42,5.95-1.42,6.67c0,0.49,0.17,0.73,0.5,0.73c0.23,0,0.45-0.09,0.66-0.26
			c0.7-0.6,1.43-1.35,2.17-2.24l0.59,0.78c-0.25,0.24-0.72,0.75-1.42,1.51c-0.96,1.04-1.61,1.68-1.97,1.94
			c-0.69,0.49-1.28,0.73-1.76,0.73c-0.36,0-0.67-0.21-0.95-0.64c-0.28-0.42-0.41-1.01-0.41-1.76c0-0.69,0.08-1.5,0.25-2.43
			s0.66-3.01,1.47-6.25c0.61-2.43,0.91-3.91,0.91-4.42c0-0.49-0.18-0.73-0.54-0.73c-0.3,0-0.7,0.18-1.2,0.54
			c-1.03,0.75-1.89,1.66-2.58,2.74c-0.48,0.75-0.9,1.93-1.25,3.56c-0.8,3.55-1.4,6.45-1.79,8.7h-2.54l2.67-13.19
			c0.19-0.95,0.29-1.5,0.29-1.64c0-0.23-0.05-0.41-0.14-0.53c-0.1-0.12-0.23-0.18-0.41-0.18c-0.32,0-0.82,0.3-1.5,0.91
			c-1.18,1.02-2.03,2.01-2.55,2.97c-0.52,0.96-0.96,2.41-1.33,4.37l-1.38,7.29h-2.57l2.02-10.29c0.6-2.98,0.9-4.6,0.9-4.86
			c0-0.33-0.11-0.5-0.32-0.5C385.42,472.54,384.47,473.36,383.03,475z"/>
		<path d="M431.6,471.7h-0.97c0.06-1.12,0.09-2.02,0.09-2.7c0-2.03-0.35-3.44-1.05-4.24c-0.7-0.8-1.58-1.2-2.64-1.2
			c-1.42,0-2.9,0.69-4.42,2.08c-1.53,1.39-2.84,3.55-3.94,6.5s-1.65,5.97-1.65,9.07c0,3.01,0.51,5.31,1.53,6.92
			c1.02,1.6,2.3,2.41,3.84,2.41c2.09,0,4.01-1.51,5.75-4.53c0.18-0.3,0.36-0.45,0.56-0.45c0.16,0,0.29,0.06,0.39,0.18
			c0.11,0.12,0.16,0.26,0.16,0.42c0,0.39-0.4,1.15-1.19,2.29c-0.79,1.14-1.79,2.08-3,2.84c-1.21,0.76-2.39,1.13-3.57,1.13
			c-1.41,0-2.72-0.44-3.92-1.33c-1.21-0.88-2.14-2.15-2.81-3.79c-0.67-1.64-1-3.59-1-5.85c0-3.15,0.68-6.29,2.05-9.41
			c1.37-3.12,3.08-5.53,5.13-7.23c2.05-1.7,4.06-2.55,6.02-2.55c0.7,0,1.4,0.09,2.1,0.28c0.3,0.09,1.53,0.58,3.69,1.49
			C432.07,466.51,431.68,469.06,431.6,471.7z"/>
		<path d="M433.02,475.04l-0.79-0.73c1.19-1.58,2.28-2.71,3.27-3.38c0.98-0.67,1.82-1,2.51-1c0.38,0,0.67,0.1,0.88,0.3
			c0.2,0.2,0.3,0.47,0.3,0.82c0,0.42-0.39,2.19-1.16,5.31c-1.26,5.11-1.89,8.19-1.89,9.24c0,0.2,0.04,0.37,0.13,0.51
			c0.08,0.14,0.17,0.21,0.27,0.21c0.38,0,1.36-0.89,2.94-2.68l0.7,0.82c-1.64,1.86-2.83,3.04-3.58,3.56
			c-0.75,0.52-1.37,0.78-1.85,0.78c-0.42,0-0.75-0.16-0.99-0.47c-0.24-0.32-0.37-0.76-0.37-1.32c0-1.8,0.9-6.19,2.69-13.19
			c0.08-0.33,0.13-0.63,0.13-0.88c0-0.29-0.11-0.43-0.32-0.43c-0.24,0-0.51,0.12-0.82,0.35
			C434.74,473.07,434.07,473.8,433.02,475.04z M440.06,460.75c0.37,0,0.67,0.15,0.91,0.44c0.24,0.29,0.36,0.67,0.36,1.13
			c0,0.63-0.18,1.19-0.55,1.67c-0.36,0.48-0.77,0.72-1.23,0.72c-0.36,0-0.66-0.15-0.9-0.45c-0.24-0.3-0.36-0.7-0.36-1.19
			c0-0.65,0.17-1.2,0.52-1.65C439.17,460.98,439.58,460.75,440.06,460.75z"/>
		<path d="M446.25,466.71l2.84-1.31l-1.29,6.04h3.71l-0.29,1.53h-3.71l-1.56,7.23c-0.5,2.17-0.74,3.68-0.74,4.53
			c0,0.39,0.07,0.67,0.21,0.84c0.14,0.17,0.33,0.26,0.56,0.26c0.37,0,0.94-0.27,1.7-0.8c1-0.7,1.96-1.5,2.87-2.4l0.68,0.99
			c-2.62,2.37-4.37,3.83-5.25,4.36c-0.88,0.53-1.59,0.8-2.13,0.8c-0.44,0-0.79-0.19-1.05-0.58s-0.39-1.02-0.39-1.9
			c0-1.04,0.23-2.62,0.68-4.75l1.82-8.59h-2.9l0.32-1.53h2.91L446.25,466.71z"/>
		<path d="M452.92,474.44l-0.57-1.01l1.33-1.08c1.29-1.06,2.2-1.75,2.72-2.05c0.3-0.17,0.57-0.26,0.82-0.26
			c0.25,0,0.49,0.17,0.72,0.52c1.05,1.6,1.94,3.75,2.65,6.46c0.72,2.71,1.07,5.34,1.07,7.88c0,0.33-0.01,0.83-0.04,1.51
			c2.02-4.48,3.03-8.03,3.03-10.67c0-0.55-0.1-1.27-0.3-2.18c-0.22-1.01-0.32-1.73-0.32-2.16c0-0.42,0.11-0.76,0.33-1.04
			c0.22-0.27,0.5-0.41,0.83-0.41c0.42,0,0.76,0.19,1.01,0.58c0.26,0.39,0.39,0.94,0.39,1.66c0,1.86-0.35,4.17-1.06,6.94
			c-0.7,2.77-1.81,5.75-3.32,8.93c-1.51,3.19-2.89,5.55-4.14,7.1s-2.45,2.65-3.62,3.32s-2.27,1-3.31,1c-0.79,0-1.38-0.18-1.78-0.53
			c-0.4-0.35-0.6-0.77-0.6-1.26c0-0.43,0.16-0.8,0.47-1.11c0.31-0.31,0.73-0.46,1.25-0.46c0.41,0,0.96,0.09,1.67,0.28
			c0.75,0.2,1.27,0.3,1.54,0.3c0.73,0,1.5-0.37,2.31-1.1c1.11-1.01,1.99-2.21,2.64-3.6c0.65-1.39,0.98-2.8,0.98-4.23
			c0-2-0.24-4.4-0.73-7.2c-0.48-2.8-1.17-4.94-2.05-6.42c-0.44-0.76-0.91-1.14-1.42-1.14C454.84,473.01,454.01,473.49,452.92,474.44
			z"/>
	</g>
	<g>
		<path d="M225.86,474.46l0.74-3.04c4.72-0.33,9.81-1.16,15.27-2.48c-1.44,4.26-2.5,7.7-3.16,10.31l-3.34,13.85
			c7.31,0,12.81-1.83,16.51-5.49c3.7-3.66,5.54-8.02,5.54-13.07c0-3.52-1.33-6.35-4-8.5c-2.67-2.15-6.65-3.23-11.94-3.23
			c-7.48,0-14.61,1.78-21.39,5.34c-6.78,3.56-12.06,8.21-15.84,13.94c-3.78,5.73-5.67,11.48-5.67,17.23c0,1.57,0.22,3.03,0.65,4.38
			c0.43,1.34,1.06,2.58,1.89,3.69c0.5,0.66,1.59,1.57,3.29,2.73c1.9,1.33,3.08,2.31,3.53,2.95c0.45,0.64,0.68,1.4,0.68,2.27
			c0,0.87-0.32,1.62-0.96,2.27c-0.64,0.64-1.42,0.96-2.33,0.96c-2.36,0-4.74-1.72-7.16-5.15c-2.42-3.44-3.63-7.68-3.63-12.73
			c0-6.95,2.08-13.69,6.23-20.21c4.16-6.52,10.04-11.74,17.64-15.68c7.61-3.93,15.98-5.9,25.12-5.9c7.44,0,13.09,1.47,16.96,4.41
			c3.87,2.94,5.8,6.52,5.8,10.74c0,4.01-1.3,7.66-3.91,10.95c-2.61,3.29-6.55,5.82-11.84,7.6c3.64,0.58,6.51,1.56,8.62,2.94
			c2.11,1.38,3.73,3.13,4.87,5.24c1.14,2.11,1.71,4.52,1.71,7.25c0,4.46-1.31,8.69-3.94,12.67c-2.63,3.99-6.49,7.29-11.6,9.92
			c-5.11,2.62-10.43,3.93-15.97,3.93c-1.61,0-5.06-0.17-10.36-0.5c-2.52-0.12-5.17-0.19-7.94-0.19c-4.22,0-7.96,0.33-11.22,0.99
			l0.93-3.41c4.34-0.25,7.43-1.29,9.27-3.12c1.84-1.83,3.57-5.88,5.18-12.14l9.18-36.04c0.37-1.54,0.56-2.71,0.56-3.5
			c0-0.62-0.26-1.18-0.78-1.65c-0.52-0.48-1.17-0.72-1.95-0.72C226.77,474.28,226.36,474.34,225.86,474.46z M234.39,496.82
			l-3.16,12.48c-1.61,6.46-3.16,11.42-4.64,14.9c-0.88,2.07-2.01,3.82-3.39,5.27c3.72,0.91,6.92,1.36,9.61,1.36
			c7.23,0,12.7-2.24,16.4-6.7c3.7-4.47,5.55-9.46,5.55-14.96c0-2.73-0.69-5.08-2.08-7.05c-1.38-1.97-3.2-3.34-5.45-4.13
			C244.99,497.21,240.7,496.82,234.39,496.82z"/>
		<path d="M294.53,501.92h5.64l-3.73,13.85c-2.19,8.04-3.29,12.62-3.29,13.73c0,0.5,0.12,0.89,0.36,1.15c0.24,0.27,0.5,0.4,0.79,0.4
			c0.45,0,0.98-0.2,1.59-0.59c0.87-0.61,2.52-2.14,4.95-4.6l1.31,1.47c-5.31,5.52-9.22,8.28-11.73,8.28c-0.85,0-1.57-0.32-2.16-0.97
			c-0.59-0.65-0.89-1.57-0.89-2.76c0-1.37,0.29-3.21,0.86-5.51c-2.35,2.7-5.26,5.06-8.71,7.1c-2.3,1.35-4.29,2.02-5.98,2.02
			c-0.92,0-1.65-0.3-2.18-0.91c-0.53-0.61-0.79-1.57-0.79-2.9c0-1.03,0.12-2.14,0.36-3.33c0.34-1.67,1.22-5.01,2.62-10.04
			c1.77-6.38,2.66-10.2,2.66-11.47c0-0.74-0.26-1.11-0.79-1.11c-0.48,0-1.12,0.24-1.94,0.73c-0.82,0.49-2.22,1.67-4.2,3.55
			l-1.74-1.39c3.54-3.17,6.24-5.25,8.11-6.24s3.36-1.49,4.5-1.49c0.63,0,1.15,0.23,1.55,0.7c0.4,0.46,0.59,1.18,0.59,2.16
			c0,1.83-0.95,6.31-2.85,13.46c-1.69,6.43-2.54,10.1-2.54,10.99c0,0.56,0.18,1.03,0.53,1.43c0.36,0.4,0.75,0.6,1.17,0.6
			c1.48,0,3.58-1.22,6.3-3.67c2.72-2.44,4.5-5.23,5.35-8.34L294.53,501.92z"/>
		<path d="M322.49,500.89c2.35,0,4.17,0.46,5.45,1.37c1.28,0.91,1.92,1.96,1.92,3.15c0,0.71-0.27,1.34-0.81,1.86
			c-0.54,0.53-1.2,0.79-1.96,0.79c-0.5,0-0.94-0.11-1.31-0.34c-0.37-0.22-0.9-0.79-1.59-1.68c-1.3-1.72-2.58-2.58-3.84-2.58
			c-1.08,0-2.04,0.42-2.87,1.25c-0.83,0.83-1.25,1.87-1.25,3.11c0,1.08,0.26,2.13,0.79,3.15s1.86,2.66,4,4.93
			c2.93,3.11,4.4,6.07,4.4,8.87c0,2.8-1.19,5.25-3.57,7.34c-2.38,2.1-5.44,3.15-9.2,3.15c-3.15,0-5.48-0.64-7.02-1.92
			c-1.53-1.28-2.3-2.86-2.3-4.74c0-0.92,0.29-1.69,0.87-2.3c0.58-0.61,1.29-0.91,2.14-0.91c0.74,0,1.37,0.24,1.9,0.73
			c0.53,0.49,0.79,1.06,0.79,1.72c0,0.26-0.02,0.61-0.05,1.03c-0.02,0.34-0.03,0.63-0.03,0.87c0,0.87,0.37,1.61,1.11,2.22
			c0.71,0.61,1.69,0.91,2.92,0.91c1.42,0,2.67-0.24,3.75-0.73c1.08-0.49,1.92-1.23,2.53-2.22s0.91-1.97,0.91-2.95
			c0-0.95-0.28-1.9-0.85-2.85c-0.57-0.95-1.84-2.52-3.83-4.71c-2.75-3.06-4.12-6-4.12-8.83c0-2.59,1.04-4.85,3.13-6.79
			C316.61,501.86,319.27,500.89,322.49,500.89z"/>
		<path d="M332.32,510.09l-1.74-1.35c2.64-2.91,5.05-4.98,7.23-6.2c2.18-1.23,4.03-1.84,5.56-1.84c0.84,0,1.49,0.19,1.94,0.56
			c0.45,0.37,0.67,0.87,0.67,1.51c0,0.77-0.86,4.02-2.57,9.75c-2.79,9.38-4.19,15.04-4.19,16.97c0,0.37,0.09,0.68,0.28,0.93
			c0.18,0.25,0.38,0.38,0.59,0.38c0.85,0,3.01-1.64,6.5-4.92l1.55,1.51c-3.62,3.41-6.26,5.59-7.93,6.54
			c-1.67,0.95-3.03,1.43-4.08,1.43c-0.93,0-1.66-0.29-2.2-0.87c-0.54-0.58-0.81-1.39-0.81-2.42c0-3.3,1.98-11.38,5.95-24.22
			c0.18-0.61,0.28-1.15,0.28-1.63c0-0.53-0.24-0.79-0.71-0.79c-0.53,0-1.13,0.21-1.8,0.63S334.65,507.82,332.32,510.09z
			 M347.9,492.13c0.82,0,1.49,0.27,2.02,0.81c0.53,0.54,0.79,1.24,0.79,2.08c0,1.16-0.4,2.19-1.21,3.07
			c-0.81,0.89-1.71,1.33-2.72,1.33c-0.79,0-1.45-0.28-1.98-0.83c-0.53-0.55-0.79-1.28-0.79-2.18c0-1.19,0.38-2.2,1.15-3.03
			C345.93,492.55,346.84,492.13,347.9,492.13z"/>
		<path d="M351.71,510.21l-1.35-1.39c3.39-3.24,6.08-5.39,8.09-6.45c2.01-1.06,3.73-1.59,5.16-1.59c0.56,0,0.99,0.12,1.31,0.36
			c0.32,0.24,0.48,0.52,0.48,0.83c0,0.24-0.07,0.66-0.2,1.27l-1.79,7.98c2.69-2.99,6.07-5.78,10.13-8.37
			c2.16-1.35,3.94-2.02,5.34-2.02c1.03,0,1.83,0.33,2.41,0.99s0.87,1.61,0.87,2.85c0,0.82-0.12,1.74-0.36,2.77
			c-0.42,1.72-1.53,5.46-3.32,11.22c-1.69,5.39-2.53,8.97-2.53,10.74c0,0.54,0.08,0.95,0.24,1.22c0.16,0.27,0.38,0.41,0.67,0.41
			c0.77,0,1.97-0.74,3.61-2.22c1.16-1.06,2.32-2.03,3.49-2.93l0.99,1.43c-2.43,2.68-4.95,4.84-7.57,6.47
			c-1.66,1.05-3.04,1.58-4.12,1.58c-1,0-1.78-0.36-2.34-1.09c-0.56-0.73-0.83-1.91-0.83-3.55c0-2.35,1.47-8.2,4.4-17.56
			c0.9-3.33,1.35-5.27,1.35-5.83c0-0.82-0.49-1.23-1.47-1.23c-1.06,0-2.42,0.56-4.08,1.67c-2.48,1.64-4.56,3.57-6.22,5.8
			c-1.06,1.43-1.94,3.71-2.66,6.83l-3.21,13.85h-5.91c1.11-3.97,2.07-7.77,2.89-11.39l3.53-15.08c0.13-0.61,0.2-1.04,0.2-1.31
			c0-0.71-0.26-1.07-0.79-1.07c-0.42,0-1.03,0.28-1.82,0.84C354.67,507.3,353.13,508.64,351.71,510.21z"/>
		<path d="M408.63,524.28l1.31,1.74c-6.47,6.16-12.02,9.24-16.65,9.24c-1.88,0-3.31-0.63-4.3-1.9c-0.99-1.27-1.49-3.3-1.49-6.1
			c0-5.65,1.72-11.28,5.15-16.89c3.86-6.37,8.47-9.55,13.83-9.55c1.88,0,3.31,0.47,4.3,1.41c0.99,0.94,1.49,2.23,1.49,3.86
			c0,1.72-0.59,3.41-1.78,5.07c-1.19,1.66-3.32,3.4-6.38,5.19c-1.53,0.87-4.81,2.44-9.83,4.72c-0.24,1.43-0.36,2.79-0.36,4.08
			c0,1.88,0.3,3.18,0.89,3.92c0.59,0.74,1.46,1.11,2.6,1.11c1.08,0,2.27-0.3,3.57-0.91C402.72,528.46,405.27,526.79,408.63,524.28z
			 M394.76,518.53c4.25-1.9,7.45-3.95,9.59-6.14c1.45-1.53,2.18-3.05,2.18-4.56c0-1.14-0.3-2.04-0.89-2.72
			c-0.59-0.67-1.37-1.01-2.32-1.01c-0.98,0-1.93,0.37-2.85,1.11c-1.24,0.98-2.29,2.46-3.13,4.44
			C396.12,512.56,395.26,515.52,394.76,518.53z"/>
		<path d="M432.85,500.89c2.35,0,4.17,0.46,5.45,1.37c1.28,0.91,1.92,1.96,1.92,3.15c0,0.71-0.27,1.34-0.81,1.86
			c-0.54,0.53-1.2,0.79-1.96,0.79c-0.5,0-0.94-0.11-1.31-0.34c-0.37-0.22-0.9-0.79-1.59-1.68c-1.3-1.72-2.58-2.58-3.84-2.58
			c-1.08,0-2.04,0.42-2.87,1.25c-0.83,0.83-1.25,1.87-1.25,3.11c0,1.08,0.26,2.13,0.79,3.15c0.53,1.02,1.86,2.66,4,4.93
			c2.93,3.11,4.4,6.07,4.4,8.87c0,2.8-1.19,5.25-3.57,7.34c-2.38,2.1-5.44,3.15-9.2,3.15c-3.15,0-5.48-0.64-7.02-1.92
			c-1.53-1.28-2.3-2.86-2.3-4.74c0-0.92,0.29-1.69,0.87-2.3c0.58-0.61,1.29-0.91,2.14-0.91c0.74,0,1.37,0.24,1.9,0.73
			c0.53,0.49,0.79,1.06,0.79,1.72c0,0.26-0.02,0.61-0.05,1.03c-0.02,0.34-0.03,0.63-0.03,0.87c0,0.87,0.37,1.61,1.11,2.22
			c0.71,0.61,1.69,0.91,2.92,0.91c1.42,0,2.67-0.24,3.75-0.73c1.08-0.49,1.92-1.23,2.53-2.22s0.91-1.97,0.91-2.95
			c0-0.95-0.28-1.9-0.85-2.85c-0.57-0.95-1.84-2.52-3.83-4.71c-2.75-3.06-4.12-6-4.12-8.83c0-2.59,1.04-4.85,3.13-6.79
			C426.97,501.86,429.63,500.89,432.85,500.89z"/>
		<path d="M458.81,500.89c2.35,0,4.17,0.46,5.45,1.37c1.28,0.91,1.92,1.96,1.92,3.15c0,0.71-0.27,1.34-0.81,1.86
			c-0.54,0.53-1.2,0.79-1.96,0.79c-0.5,0-0.94-0.11-1.31-0.34c-0.37-0.22-0.9-0.79-1.59-1.68c-1.29-1.72-2.58-2.58-3.84-2.58
			c-1.08,0-2.04,0.42-2.87,1.25c-0.83,0.83-1.25,1.87-1.25,3.11c0,1.08,0.26,2.13,0.79,3.15c0.53,1.02,1.86,2.66,4,4.93
			c2.93,3.11,4.4,6.07,4.4,8.87c0,2.8-1.19,5.25-3.57,7.34c-2.38,2.1-5.45,3.15-9.2,3.15c-3.15,0-5.48-0.64-7.02-1.92
			c-1.53-1.28-2.3-2.86-2.3-4.74c0-0.92,0.29-1.69,0.87-2.3c0.58-0.61,1.29-0.91,2.14-0.91c0.74,0,1.37,0.24,1.9,0.73
			c0.53,0.49,0.79,1.06,0.79,1.72c0,0.26-0.02,0.61-0.05,1.03c-0.02,0.34-0.03,0.63-0.03,0.87c0,0.87,0.37,1.61,1.11,2.22
			c0.71,0.61,1.69,0.91,2.92,0.91c1.42,0,2.67-0.24,3.75-0.73c1.08-0.49,1.92-1.23,2.53-2.22c0.6-0.99,0.91-1.97,0.91-2.95
			c0-0.95-0.28-1.9-0.85-2.85c-0.57-0.95-1.84-2.52-3.83-4.71c-2.75-3.06-4.12-6-4.12-8.83c0-2.59,1.04-4.85,3.13-6.79
			C452.93,501.86,455.59,500.89,458.81,500.89z"/>
		<path d="M525.57,503.95h-2.14c0.13-2.06,0.2-3.71,0.2-4.95c0-3.73-0.77-6.32-2.32-7.79c-1.55-1.47-3.5-2.2-5.85-2.2
			c-3.14,0-6.41,1.28-9.79,3.83c-3.38,2.55-6.29,6.53-8.72,11.93c-2.43,5.4-3.65,10.96-3.65,16.67c0,5.52,1.13,9.76,3.39,12.7
			c2.26,2.95,5.09,4.42,8.5,4.42c4.62,0,8.87-2.77,12.73-8.32c0.4-0.55,0.81-0.83,1.23-0.83c0.34,0,0.63,0.11,0.87,0.34
			c0.24,0.22,0.36,0.48,0.36,0.77c0,0.71-0.88,2.11-2.64,4.2c-1.76,2.09-3.97,3.83-6.64,5.21c-2.67,1.39-5.3,2.08-7.89,2.08
			c-3.12,0-6.01-0.81-8.68-2.44c-2.67-1.62-4.74-3.94-6.22-6.96c-1.48-3.01-2.22-6.59-2.22-10.74c0-5.79,1.51-11.55,4.54-17.28
			c3.03-5.73,6.81-10.16,11.36-13.28c4.54-3.12,8.98-4.68,13.32-4.68c1.56,0,3.1,0.17,4.64,0.52c0.66,0.16,3.38,1.07,8.17,2.74
			C526.6,494.42,525.75,499.11,525.57,503.95z"/>
		<path d="M547.09,500.89c2.59,0,4.74,1.03,6.46,3.09c1.72,2.06,2.58,4.93,2.58,8.6c0,5.87-2.06,11.13-6.18,15.8
			c-4.12,4.66-8.48,7-13.08,7c-2.83,0-5.11-0.93-6.84-2.77c-1.73-1.85-2.6-4.37-2.6-7.57c0-5.55,1.59-10.68,4.76-15.38
			C536.18,503.81,541.14,500.89,547.09,500.89z M543.72,503.87c-2.25,0-4.42,1.61-6.52,4.82c-2.1,3.21-3.15,7.64-3.15,13.3
			c0,3.44,0.65,6.14,1.94,8.13c0.95,1.45,2.22,2.18,3.81,2.18c2.22,0,4.24-1.37,6.06-4.12c2.33-3.57,3.49-7.99,3.49-13.28
			c0-3.96-0.54-6.79-1.61-8.48S545.33,503.87,543.72,503.87z"/>
		<path d="M586.68,501.92h5.64l-3.73,13.85c-2.19,8.04-3.29,12.62-3.29,13.73c0,0.5,0.12,0.89,0.36,1.15c0.24,0.27,0.5,0.4,0.79,0.4
			c0.45,0,0.98-0.2,1.59-0.59c0.87-0.61,2.52-2.14,4.95-4.6l1.31,1.47c-5.31,5.52-9.22,8.28-11.73,8.28c-0.85,0-1.57-0.32-2.16-0.97
			c-0.6-0.65-0.89-1.57-0.89-2.76c0-1.37,0.29-3.21,0.86-5.51c-2.35,2.7-5.25,5.06-8.71,7.1c-2.3,1.35-4.29,2.02-5.98,2.02
			c-0.92,0-1.65-0.3-2.18-0.91c-0.53-0.61-0.79-1.57-0.79-2.9c0-1.03,0.12-2.14,0.36-3.33c0.34-1.67,1.21-5.01,2.62-10.04
			c1.77-6.38,2.66-10.2,2.66-11.47c0-0.74-0.26-1.11-0.79-1.11c-0.48,0-1.12,0.24-1.94,0.73c-0.82,0.49-2.22,1.67-4.2,3.55
			l-1.74-1.39c3.54-3.17,6.24-5.25,8.11-6.24c1.86-0.99,3.36-1.49,4.5-1.49c0.63,0,1.15,0.23,1.55,0.7c0.4,0.46,0.6,1.18,0.6,2.16
			c0,1.83-0.95,6.31-2.85,13.46c-1.69,6.43-2.54,10.1-2.54,10.99c0,0.56,0.18,1.03,0.53,1.43c0.36,0.4,0.75,0.6,1.17,0.6
			c1.48,0,3.58-1.22,6.3-3.67c2.72-2.44,4.5-5.23,5.35-8.34L586.68,501.92z"/>
		<path d="M598.42,510.21l-1.35-1.39c3.39-3.24,6.08-5.39,8.09-6.45c2.01-1.06,3.73-1.59,5.16-1.59c0.55,0,0.99,0.12,1.31,0.36
			c0.32,0.24,0.48,0.52,0.48,0.83c0,0.24-0.07,0.66-0.2,1.27l-1.79,7.98c2.69-2.99,6.07-5.78,10.13-8.37
			c2.16-1.35,3.94-2.02,5.34-2.02c1.03,0,1.83,0.33,2.41,0.99c0.58,0.66,0.87,1.61,0.87,2.85c0,0.82-0.12,1.74-0.36,2.77
			c-0.42,1.72-1.53,5.46-3.32,11.22c-1.69,5.39-2.53,8.97-2.53,10.74c0,0.54,0.08,0.95,0.24,1.22c0.16,0.27,0.38,0.41,0.67,0.41
			c0.77,0,1.97-0.74,3.61-2.22c1.16-1.06,2.33-2.03,3.49-2.93l0.99,1.43c-2.43,2.68-4.95,4.84-7.57,6.47
			c-1.66,1.05-3.04,1.58-4.12,1.58c-1,0-1.78-0.36-2.34-1.09c-0.55-0.73-0.83-1.91-0.83-3.55c0-2.35,1.47-8.2,4.4-17.56
			c0.9-3.33,1.35-5.27,1.35-5.83c0-0.82-0.49-1.23-1.47-1.23c-1.06,0-2.42,0.56-4.08,1.67c-2.48,1.64-4.56,3.57-6.22,5.8
			c-1.06,1.43-1.94,3.71-2.66,6.83l-3.21,13.85h-5.91c1.11-3.97,2.07-7.77,2.89-11.39l3.53-15.08c0.13-0.61,0.2-1.04,0.2-1.31
			c0-0.71-0.26-1.07-0.79-1.07c-0.42,0-1.03,0.28-1.82,0.84C601.38,507.3,599.85,508.64,598.42,510.21z"/>
		<path d="M656.34,525.63l0.83,2.3c-6.29,4.94-11.6,7.41-15.94,7.41c-2.3,0-3.97-0.82-5.01-2.46c-1.04-1.64-1.57-3.71-1.57-6.22
			c0-4.18,1.11-8.47,3.33-12.88c2.22-4.41,4.92-7.79,8.09-10.15c2.48-1.82,5.29-2.74,8.4-2.74c1.96,0,3.43,0.37,4.44,1.11
			c1,0.74,1.51,1.64,1.51,2.7c0,0.82-0.26,1.49-0.79,2c-0.53,0.52-1.27,0.77-2.22,0.77c-0.93,0-2.11-0.42-3.57-1.27
			c-1.51-0.9-2.76-1.35-3.77-1.35c-1.29,0-2.58,0.59-3.86,1.76c-1.28,1.17-2.5,3.45-3.67,6.83c-1.16,3.38-1.74,6.77-1.74,10.17
			c0,2.51,0.49,4.45,1.47,5.82c0.71,1.05,1.72,1.58,3.01,1.58C648.37,531.02,652.06,529.22,656.34,525.63z"/>
		<path d="M663.43,510.09l-1.74-1.35c2.64-2.91,5.05-4.98,7.23-6.2c2.18-1.23,4.03-1.84,5.56-1.84c0.84,0,1.49,0.19,1.94,0.56
			c0.45,0.37,0.67,0.87,0.67,1.51c0,0.77-0.86,4.02-2.57,9.75c-2.79,9.38-4.19,15.04-4.19,16.97c0,0.37,0.09,0.68,0.28,0.93
			c0.18,0.25,0.38,0.38,0.59,0.38c0.85,0,3.01-1.64,6.5-4.92l1.55,1.51c-3.62,3.41-6.26,5.59-7.93,6.54
			c-1.66,0.95-3.03,1.43-4.08,1.43c-0.93,0-1.66-0.29-2.2-0.87c-0.54-0.58-0.81-1.39-0.81-2.42c0-3.3,1.98-11.38,5.95-24.22
			c0.18-0.61,0.28-1.15,0.28-1.63c0-0.53-0.24-0.79-0.71-0.79c-0.53,0-1.13,0.21-1.8,0.63
			C667.26,506.47,665.76,507.82,663.43,510.09z M679.01,492.13c0.82,0,1.49,0.27,2.02,0.81c0.53,0.54,0.79,1.24,0.79,2.08
			c0,1.16-0.4,2.19-1.21,3.07c-0.81,0.89-1.71,1.33-2.72,1.33c-0.79,0-1.45-0.28-1.98-0.83c-0.53-0.55-0.79-1.28-0.79-2.18
			c0-1.19,0.38-2.2,1.15-3.03C677.04,492.55,677.95,492.13,679.01,492.13z"/>
		<path d="M698.12,524.68l1.35,1.43c-2.06,2.33-4.5,4.45-7.31,6.36c-2.81,1.92-5.13,2.87-6.96,2.87c-0.82,0-1.49-0.31-2.02-0.93
			c-0.53-0.62-0.79-1.47-0.79-2.56c0-2.11,0.82-6.5,2.45-13.16l4.28-17.4c1.56-6.29,2.86-10.51,3.92-12.65
			c1.64-3.24,3.95-5.75,6.95-7.54c3-1.79,6.16-2.68,9.48-2.68c1.13,0,2.02,0.27,2.67,0.82c0.65,0.55,0.97,1.2,0.97,1.98
			c0,0.85-0.32,1.55-0.95,2.1c-0.63,0.55-1.55,0.82-2.76,0.82c-0.79,0-1.91-0.13-3.36-0.4c-1.26-0.21-2.44-0.32-3.52-0.32
			c-1.08,0-1.9,0.22-2.45,0.67c-0.76,0.63-1.45,1.96-2.07,3.99c-0.62,2.03-1.63,6.02-3.02,11.99l-3.95,16.61
			c-1.96,8.32-2.93,12.67-2.93,13.04c0,0.85,0.3,1.27,0.91,1.27c0.58,0,1.43-0.34,2.54-1.03
			C693.73,528.58,695.92,526.82,698.12,524.68z"/>
		<path d="M750.48,487.34l-0.67,2.14c-2.99,0.19-4.98,0.56-5.96,1.11c-0.63,0.37-1.16,0.93-1.59,1.66c-0.5,0.95-1.97,6-4.39,15.14
			c-0.79,3.01-2.81,11.24-6.06,24.69c1.85,0.61,4.19,0.87,7.02,0.79l-0.63,1.9c-0.85,0.03-2.54-0.08-5.07-0.32
			c-1.82-0.16-3.95-0.24-6.38-0.24c-3.36,0-6.43,0.25-9.24,0.75l0.48-2.1c2.91-0.45,5.11-1.03,6.62-1.74
			c0.37-0.18,0.66-0.41,0.87-0.67c0.4-0.48,0.83-1.43,1.29-2.87c0.46-1.44,2.04-7.33,4.74-17.66c0.79-2.99,2.4-9.51,4.84-19.58
			c-1.82-0.05-4.06,0.2-6.7,0.75l0.75-2.18c1.11-0.29,2.25-0.5,3.41-0.61c1.16-0.12,3.79-0.23,7.89-0.34
			C745.51,487.87,748.45,487.65,750.48,487.34z"/>
		<path d="M750.96,510.21l-1.35-1.39c3.39-3.24,6.08-5.39,8.09-6.45c2.01-1.06,3.73-1.59,5.16-1.59c0.55,0,0.99,0.12,1.31,0.36
			c0.32,0.24,0.48,0.52,0.48,0.83c0,0.24-0.07,0.66-0.2,1.27l-1.79,7.98c2.69-2.99,6.07-5.78,10.13-8.37
			c2.16-1.35,3.94-2.02,5.34-2.02c1.03,0,1.83,0.33,2.41,0.99c0.58,0.66,0.87,1.61,0.87,2.85c0,0.82-0.12,1.74-0.36,2.77
			c-0.42,1.72-1.53,5.46-3.32,11.22c-1.69,5.39-2.53,8.97-2.53,10.74c0,0.54,0.08,0.95,0.24,1.22c0.16,0.27,0.38,0.41,0.67,0.41
			c0.77,0,1.97-0.74,3.61-2.22c1.16-1.06,2.33-2.03,3.49-2.93l0.99,1.43c-2.43,2.68-4.95,4.84-7.57,6.47
			c-1.66,1.05-3.04,1.58-4.12,1.58c-1,0-1.78-0.36-2.34-1.09c-0.55-0.73-0.83-1.91-0.83-3.55c0-2.35,1.47-8.2,4.4-17.56
			c0.9-3.33,1.35-5.27,1.35-5.83c0-0.82-0.49-1.23-1.47-1.23c-1.06,0-2.42,0.56-4.08,1.67c-2.48,1.64-4.56,3.57-6.22,5.8
			c-1.06,1.43-1.94,3.71-2.66,6.83l-3.21,13.85h-5.91c1.11-3.97,2.07-7.77,2.89-11.39l3.53-15.08c0.13-0.61,0.2-1.04,0.2-1.31
			c0-0.71-0.26-1.07-0.79-1.07c-0.42,0-1.03,0.28-1.82,0.84C753.92,507.3,752.38,508.64,750.96,510.21z"/>
		<path d="M808.87,525.63l0.83,2.3c-6.29,4.94-11.6,7.41-15.94,7.41c-2.3,0-3.97-0.82-5.01-2.46c-1.04-1.64-1.57-3.71-1.57-6.22
			c0-4.18,1.11-8.47,3.33-12.88c2.22-4.41,4.92-7.79,8.09-10.15c2.48-1.82,5.29-2.74,8.4-2.74c1.96,0,3.43,0.37,4.44,1.11
			c1,0.74,1.51,1.64,1.51,2.7c0,0.82-0.26,1.49-0.79,2c-0.53,0.52-1.27,0.77-2.22,0.77c-0.93,0-2.11-0.42-3.57-1.27
			c-1.51-0.9-2.76-1.35-3.77-1.35c-1.29,0-2.58,0.59-3.86,1.76c-1.28,1.17-2.5,3.45-3.67,6.83c-1.16,3.38-1.74,6.77-1.74,10.17
			c0,2.51,0.49,4.45,1.47,5.82c0.71,1.05,1.72,1.58,3.01,1.58C800.9,531.02,804.59,529.22,808.87,525.63z"/>
	</g>
	<path d="M818.03,525.63c1.03,0,1.9,0.39,2.6,1.17c0.7,0.78,1.05,1.76,1.05,2.95c0,1.72-0.41,3.07-1.23,4.04
		c-0.82,0.98-1.85,1.47-3.09,1.47c-1.03,0-1.9-0.36-2.6-1.09c-0.7-0.73-1.05-1.66-1.05-2.79c0-1.67,0.49-3.12,1.47-4.36
		C815.89,526.09,816.84,525.63,818.03,525.63z"/>
</g>
</svg>
